<?xml version="1.0" standalone="no"?>
<!DOCTYPE svg PUBLIC "-//W3C//DTD SVG 20010904//EN"
 "http://www.w3.org/TR/2001/REC-SVG-20010904/DTD/svg10.dtd">
<svg version="1.0" xmlns="http://www.w3.org/2000/svg"
 width="260.000000pt" height="260.000000pt" viewBox="0 0 260.000000 260.000000"
 preserveAspectRatio="xMidYMid meet">
<metadata>
Created by potrace 1.11, written by Peter Selinger 2001-2013
</metadata>
<g transform="translate(0.000000,260.000000) scale(0.100000,-0.100000)"
fill="#000000" stroke="none">
<path d="M1140 2433 c-80 -47 -165 -96 -190 -110 -25 -13 -66 -36 -91 -51 -25
-15 -175 -101 -333 -191 l-286 -165 0 -616 0 -616 203 -116 c111 -64 218 -125
237 -136 19 -11 154 -88 300 -172 146 -85 277 -160 292 -167 33 -17 6 -30 361
174 147 84 285 164 306 176 22 12 125 71 230 131 l191 110 0 616 0 616 -282
162 c-156 90 -294 169 -308 177 -194 113 -458 260 -470 262 -8 0 -80 -37 -160
-84z"/>
</g>
</svg>
